<svg width="0" height="0" class="hidden">
  <symbol fill="none" xmlns="http://www.w3.org/2000/svg" viewBox="0 0 24 24" id="instagram">
    <g clip-path="url(#clip0)">
      <path d="M23.095 1.906C22.49 1.302 21.767 1 20.923 1H3.08c-.844 0-1.567.302-2.172.906C.303 2.51.001 3.234.001 4.078v17.844c0 .843.302 1.567.906 2.171.605.605 1.329.907 2.172.907h17.844c.843 0 1.568-.302 2.172-.907A2.962 2.962 0 0024 21.922V4.078c0-.844-.302-1.567-.906-2.172zM8.618 9.648c.943-.911 2.076-1.367 3.399-1.367 1.333 0 2.471.456 3.414 1.367.943.912 1.414 2.014 1.414 3.305 0 1.292-.471 2.393-1.414 3.305-.943.911-2.08 1.367-3.414 1.367-1.323 0-2.456-.456-3.399-1.367-.942-.912-1.414-2.013-1.414-3.305 0-1.291.472-2.393 1.414-3.305zm12.665 11.633a.91.91 0 01-.282.68.931.931 0 01-.672.273H3.626a.922.922 0 01-.68-.273.922.922 0 01-.273-.68V11.156h2.203a6.728 6.728 0 00-.312 2.047c0 2 .729 3.706 2.187 5.118 1.459 1.41 3.214 2.117 5.266 2.117a7.51 7.51 0 003.75-.97 7.296 7.296 0 002.719-2.632 6.93 6.93 0 001-3.633 6.73 6.73 0 00-.313-2.047h2.11v10.126zm0-13.953c0 .302-.105.557-.313.766a1.04 1.04 0 01-.766.312h-2.719c-.301 0-.557-.104-.765-.312a1.041 1.041 0 01-.313-.766V4.75c0-.292.105-.544.313-.758a1.03 1.03 0 01.765-.32h2.72c.301 0 .557.107.765.32.208.214.313.466.313.758v2.578z" fill="#fff"></path>
    </g>
    <defs>
      <clipPath id="clip0">
        <path fill="#fff" d="M0 0h24v24H0z"></path>
      </clipPath>
    </defs>
  </symbol>
  <symbol fill="none" xmlns="http://www.w3.org/2000/svg" viewBox="0 0 24 24" id="linkedin">
    <g clip-path="url(#clip0)">
      <path d="M23.68.32C22.8-.56 21.74-1 20.5-1h-15C4.26-1 3.2-.56 2.32.32 1.44 1.2 1 2.26 1 3.5v15c0 1.24.44 2.3 1.32 3.18C3.2 22.56 4.26 23 5.5 23h15c1.24 0 2.3-.44 3.18-1.32.88-.88 1.32-1.94 1.32-3.18v-15c0-1.24-.44-2.3-1.32-3.18zm-4.32 7.914c.01.094.015.235.015.422 0 .875-.128 1.753-.383 2.633a9.424 9.424 0 01-1.172 2.531 9.848 9.848 0 01-1.882 2.141c-.73.62-1.604 1.115-2.625 1.484a9.555 9.555 0 01-3.281.555 9.21 9.21 0 01-5.031-1.468c.25.03.51.046.78.046 1.511 0 2.87-.468 4.079-1.406a3.113 3.113 0 01-1.898-.656 3.335 3.335 0 01-1.164-1.625c.27.041.473.062.609.062.229 0 .495-.042.797-.125a3.283 3.283 0 01-1.922-1.133A3.12 3.12 0 015.5 9.61v-.032c.551.26 1.072.396 1.562.407C6.115 9.349 5.64 8.438 5.64 7.25c0-.583.151-1.135.453-1.656a9.3 9.3 0 003 2.422 9.29 9.29 0 003.781 1.015 3.015 3.015 0 01-.078-.75c0-.906.32-1.68.961-2.32A3.161 3.161 0 0116.078 5c.959 0 1.756.344 2.391 1.031a6.527 6.527 0 002.094-.797c-.26.802-.745 1.412-1.453 1.828a6.955 6.955 0 001.89-.53 6.381 6.381 0 01-1.64 1.702z" fill="#F2F2F2"></path>
    </g>
    <defs>
      <clipPath id="clip0">
        <path fill="#fff" d="M0 0h24v24H0z"></path>
      </clipPath>
    </defs>
  </symbol>
</svg>